<mxfile host="app.diagrams.net" modified="2022-12-05T15:30:09.263Z" agent="5.0 (Macintosh; Intel Mac OS X 10_15_7) AppleWebKit/537.36 (KHTML, like Gecko) Chrome/107.0.0.0 Safari/537.36" etag="6pB8xs6aigUTxarlYGq4" version="20.6.0" type="github">
  <diagram id="kgpKYQtTHZ0yAKxKKP6v" name="Page-1">
    <mxGraphModel dx="1218" dy="897" grid="1" gridSize="10" guides="1" tooltips="1" connect="1" arrows="1" fold="1" page="1" pageScale="1" pageWidth="850" pageHeight="1100" math="0" shadow="0">
      <root>
        <mxCell id="0" />
        <mxCell id="1" parent="0" />
        <mxCell id="D4jHrqRHZV9Om87bHCHB-15" value="Inception space" style="rounded=1;whiteSpace=wrap;html=1;labelPosition=center;verticalLabelPosition=top;align=center;verticalAlign=bottom;horizontal=1;fontSize=11;labelBorderColor=none;labelBackgroundColor=none;" vertex="1" parent="1">
          <mxGeometry x="370" y="20" width="310" height="160" as="geometry" />
        </mxCell>
        <mxCell id="D4jHrqRHZV9Om87bHCHB-14" value="Github" style="rounded=1;whiteSpace=wrap;html=1;" vertex="1" parent="1">
          <mxGeometry x="30" y="330" width="570" height="160" as="geometry" />
        </mxCell>
        <mxCell id="D4jHrqRHZV9Om87bHCHB-44" style="edgeStyle=orthogonalEdgeStyle;rounded=0;orthogonalLoop=1;jettySize=auto;html=1;fontSize=11;" edge="1" parent="1" source="D4jHrqRHZV9Om87bHCHB-4" target="D4jHrqRHZV9Om87bHCHB-31">
          <mxGeometry relative="1" as="geometry">
            <Array as="points">
              <mxPoint x="951" y="240" />
            </Array>
          </mxGeometry>
        </mxCell>
        <mxCell id="D4jHrqRHZV9Om87bHCHB-4" value="Unicorn" style="whiteSpace=wrap;html=1;aspect=fixed;" vertex="1" parent="1">
          <mxGeometry x="911" y="360" width="80" height="80" as="geometry" />
        </mxCell>
        <mxCell id="D4jHrqRHZV9Om87bHCHB-5" value="Github-site-content" style="whiteSpace=wrap;html=1;aspect=fixed;" vertex="1" parent="1">
          <mxGeometry x="510" y="380" width="80" height="80" as="geometry" />
        </mxCell>
        <mxCell id="D4jHrqRHZV9Om87bHCHB-43" style="edgeStyle=orthogonalEdgeStyle;rounded=0;orthogonalLoop=1;jettySize=auto;html=1;fontSize=11;" edge="1" parent="1" source="D4jHrqRHZV9Om87bHCHB-7" target="D4jHrqRHZV9Om87bHCHB-31">
          <mxGeometry relative="1" as="geometry" />
        </mxCell>
        <mxCell id="D4jHrqRHZV9Om87bHCHB-7" value="Artifactory" style="whiteSpace=wrap;html=1;aspect=fixed;" vertex="1" parent="1">
          <mxGeometry x="610" y="200" width="80" height="80" as="geometry" />
        </mxCell>
        <mxCell id="D4jHrqRHZV9Om87bHCHB-34" value="Build &amp;amp; Publish" style="edgeStyle=orthogonalEdgeStyle;rounded=0;orthogonalLoop=1;jettySize=auto;html=1;entryX=0.25;entryY=0;entryDx=0;entryDy=0;fontSize=11;" edge="1" parent="1" source="D4jHrqRHZV9Om87bHCHB-8" target="D4jHrqRHZV9Om87bHCHB-20">
          <mxGeometry relative="1" as="geometry">
            <Array as="points">
              <mxPoint x="145" y="240" />
            </Array>
          </mxGeometry>
        </mxCell>
        <mxCell id="D4jHrqRHZV9Om87bHCHB-35" value="Publish" style="edgeStyle=orthogonalEdgeStyle;rounded=0;orthogonalLoop=1;jettySize=auto;html=1;entryX=0;entryY=0.5;entryDx=0;entryDy=0;fontSize=11;" edge="1" parent="1" source="D4jHrqRHZV9Om87bHCHB-8" target="D4jHrqRHZV9Om87bHCHB-7">
          <mxGeometry relative="1" as="geometry" />
        </mxCell>
        <mxCell id="D4jHrqRHZV9Om87bHCHB-36" style="edgeStyle=orthogonalEdgeStyle;rounded=0;orthogonalLoop=1;jettySize=auto;html=1;entryX=0;entryY=0.5;entryDx=0;entryDy=0;fontSize=11;" edge="1" parent="1" source="D4jHrqRHZV9Om87bHCHB-8" target="D4jHrqRHZV9Om87bHCHB-5">
          <mxGeometry relative="1" as="geometry" />
        </mxCell>
        <mxCell id="D4jHrqRHZV9Om87bHCHB-8" value="GoCD" style="whiteSpace=wrap;html=1;aspect=fixed;" vertex="1" parent="1">
          <mxGeometry x="370" y="200" width="80" height="80" as="geometry" />
        </mxCell>
        <mxCell id="D4jHrqRHZV9Om87bHCHB-40" value="run vrt" style="edgeStyle=orthogonalEdgeStyle;rounded=0;orthogonalLoop=1;jettySize=auto;html=1;fontSize=11;" edge="1" parent="1" source="D4jHrqRHZV9Om87bHCHB-9" target="D4jHrqRHZV9Om87bHCHB-16">
          <mxGeometry relative="1" as="geometry" />
        </mxCell>
        <mxCell id="D4jHrqRHZV9Om87bHCHB-9" value="VRT Tracker" style="whiteSpace=wrap;html=1;aspect=fixed;" vertex="1" parent="1">
          <mxGeometry x="570" y="60" width="80" height="80" as="geometry" />
        </mxCell>
        <mxCell id="D4jHrqRHZV9Om87bHCHB-32" style="edgeStyle=orthogonalEdgeStyle;rounded=0;orthogonalLoop=1;jettySize=auto;html=1;entryX=1;entryY=0.5;entryDx=0;entryDy=0;fontSize=11;" edge="1" parent="1" source="D4jHrqRHZV9Om87bHCHB-10" target="D4jHrqRHZV9Om87bHCHB-12">
          <mxGeometry relative="1" as="geometry" />
        </mxCell>
        <mxCell id="D4jHrqRHZV9Om87bHCHB-10" value="Token Service" style="whiteSpace=wrap;html=1;aspect=fixed;" vertex="1" parent="1">
          <mxGeometry x="120" y="90" width="80" height="80" as="geometry" />
        </mxCell>
        <mxCell id="D4jHrqRHZV9Om87bHCHB-33" style="edgeStyle=orthogonalEdgeStyle;rounded=0;orthogonalLoop=1;jettySize=auto;html=1;fontSize=11;" edge="1" parent="1" source="D4jHrqRHZV9Om87bHCHB-11" target="D4jHrqRHZV9Om87bHCHB-10">
          <mxGeometry relative="1" as="geometry" />
        </mxCell>
        <mxCell id="D4jHrqRHZV9Om87bHCHB-11" value="NGINX" style="whiteSpace=wrap;html=1;aspect=fixed;" vertex="1" parent="1">
          <mxGeometry x="220" y="90" width="80" height="80" as="geometry" />
        </mxCell>
        <mxCell id="D4jHrqRHZV9Om87bHCHB-12" value="Figma API" style="whiteSpace=wrap;html=1;aspect=fixed;" vertex="1" parent="1">
          <mxGeometry y="90" width="80" height="80" as="geometry" />
        </mxCell>
        <mxCell id="D4jHrqRHZV9Om87bHCHB-41" value="Fetch Tokens" style="edgeStyle=orthogonalEdgeStyle;rounded=0;orthogonalLoop=1;jettySize=auto;html=1;entryX=1;entryY=0.5;entryDx=0;entryDy=0;fontSize=11;" edge="1" parent="1" source="D4jHrqRHZV9Om87bHCHB-17" target="D4jHrqRHZV9Om87bHCHB-11">
          <mxGeometry relative="1" as="geometry" />
        </mxCell>
        <mxCell id="D4jHrqRHZV9Om87bHCHB-17" value="Approval Overview" style="whiteSpace=wrap;html=1;aspect=fixed;" vertex="1" parent="1">
          <mxGeometry x="395" y="100" width="60" height="60" as="geometry" />
        </mxCell>
        <mxCell id="D4jHrqRHZV9Om87bHCHB-19" value="Production Content CDN&lt;br&gt;" style="rounded=1;whiteSpace=wrap;html=1;labelPosition=center;verticalLabelPosition=top;align=center;verticalAlign=bottom;" vertex="1" parent="1">
          <mxGeometry x="680" y="330" width="160" height="70" as="geometry" />
        </mxCell>
        <mxCell id="D4jHrqRHZV9Om87bHCHB-16" value="Storybook" style="whiteSpace=wrap;html=1;aspect=fixed;labelPosition=center;verticalLabelPosition=middle;align=center;verticalAlign=middle;" vertex="1" parent="1">
          <mxGeometry x="395" y="30" width="60" height="60" as="geometry" />
        </mxCell>
        <mxCell id="D4jHrqRHZV9Om87bHCHB-20" value="Beacon Mono Repo" style="rounded=1;whiteSpace=wrap;html=1;horizontal=1;verticalAlign=bottom;labelPosition=center;verticalLabelPosition=top;align=center;" vertex="1" parent="1">
          <mxGeometry x="40" y="380" width="420" height="100" as="geometry" />
        </mxCell>
        <mxCell id="D4jHrqRHZV9Om87bHCHB-24" value="Style Creators" style="whiteSpace=wrap;html=1;aspect=fixed;" vertex="1" parent="1">
          <mxGeometry x="210" y="390" width="80" height="80" as="geometry" />
        </mxCell>
        <mxCell id="D4jHrqRHZV9Om87bHCHB-23" value="Providers" style="whiteSpace=wrap;html=1;aspect=fixed;" vertex="1" parent="1">
          <mxGeometry x="290" y="390" width="80" height="80" as="geometry" />
        </mxCell>
        <mxCell id="D4jHrqRHZV9Om87bHCHB-25" value="Components" style="whiteSpace=wrap;html=1;aspect=fixed;" vertex="1" parent="1">
          <mxGeometry x="370" y="390" width="80" height="80" as="geometry" />
        </mxCell>
        <mxCell id="D4jHrqRHZV9Om87bHCHB-22" value="Approval Overview" style="whiteSpace=wrap;html=1;aspect=fixed;" vertex="1" parent="1">
          <mxGeometry x="130" y="390" width="80" height="80" as="geometry" />
        </mxCell>
        <mxCell id="D4jHrqRHZV9Om87bHCHB-21" value="Themes" style="whiteSpace=wrap;html=1;aspect=fixed;" vertex="1" parent="1">
          <mxGeometry x="50" y="390" width="80" height="80" as="geometry" />
        </mxCell>
        <mxCell id="D4jHrqRHZV9Om87bHCHB-29" value="tokens.json" style="shape=dataStorage;whiteSpace=wrap;html=1;fixedSize=1;rounded=1;" vertex="1" parent="1">
          <mxGeometry x="711" y="345" width="120" height="40" as="geometry" />
        </mxCell>
        <mxCell id="D4jHrqRHZV9Om87bHCHB-30" value="@beacon/lib" style="shape=dataStorage;whiteSpace=wrap;html=1;fixedSize=1;rounded=1;fontSize=10;align=center;size=11;" vertex="1" parent="1">
          <mxGeometry x="905.5" y="440" width="91" height="30" as="geometry" />
        </mxCell>
        <mxCell id="D4jHrqRHZV9Om87bHCHB-31" value="@beacon/lib" style="shape=dataStorage;whiteSpace=wrap;html=1;fixedSize=1;rounded=1;size=10;" vertex="1" parent="1">
          <mxGeometry x="760" y="220" width="110" height="40" as="geometry" />
        </mxCell>
        <mxCell id="D4jHrqRHZV9Om87bHCHB-42" value="@beacon/lib" style="shape=dataStorage;whiteSpace=wrap;html=1;fixedSize=1;rounded=1;fontSize=10;align=center;size=10;" vertex="1" parent="1">
          <mxGeometry x="380" y="76" width="90" height="30" as="geometry" />
        </mxCell>
        <mxCell id="D4jHrqRHZV9Om87bHCHB-46" style="edgeStyle=orthogonalEdgeStyle;rounded=0;orthogonalLoop=1;jettySize=auto;html=1;fontSize=10;" edge="1" parent="1" source="D4jHrqRHZV9Om87bHCHB-4" target="D4jHrqRHZV9Om87bHCHB-29">
          <mxGeometry relative="1" as="geometry" />
        </mxCell>
        <mxCell id="D4jHrqRHZV9Om87bHCHB-47" value="" style="group" vertex="1" connectable="0" parent="1">
          <mxGeometry x="680" y="430" width="165" height="70" as="geometry" />
        </mxCell>
        <mxCell id="D4jHrqRHZV9Om87bHCHB-18" value="PP Content CDN" style="rounded=1;whiteSpace=wrap;html=1;labelPosition=center;verticalLabelPosition=bottom;align=center;verticalAlign=top;" vertex="1" parent="D4jHrqRHZV9Om87bHCHB-47">
          <mxGeometry width="165" height="70" as="geometry" />
        </mxCell>
        <mxCell id="D4jHrqRHZV9Om87bHCHB-28" value="tokens.json" style="shape=dataStorage;whiteSpace=wrap;html=1;fixedSize=1;rounded=1;" vertex="1" parent="D4jHrqRHZV9Om87bHCHB-47">
          <mxGeometry x="22.5" y="15" width="120" height="40" as="geometry" />
        </mxCell>
        <mxCell id="D4jHrqRHZV9Om87bHCHB-45" style="edgeStyle=orthogonalEdgeStyle;rounded=0;orthogonalLoop=1;jettySize=auto;html=1;fontSize=10;" edge="1" parent="1" source="D4jHrqRHZV9Om87bHCHB-4" target="D4jHrqRHZV9Om87bHCHB-28">
          <mxGeometry relative="1" as="geometry">
            <Array as="points">
              <mxPoint x="881" y="430" />
              <mxPoint x="881" y="465" />
            </Array>
          </mxGeometry>
        </mxCell>
        <mxCell id="D4jHrqRHZV9Om87bHCHB-49" value="deploy" style="edgeStyle=orthogonalEdgeStyle;rounded=0;orthogonalLoop=1;jettySize=auto;html=1;entryX=0;entryY=0.5;entryDx=0;entryDy=0;fontSize=10;" edge="1" parent="1" source="D4jHrqRHZV9Om87bHCHB-5" target="D4jHrqRHZV9Om87bHCHB-29">
          <mxGeometry relative="1" as="geometry" />
        </mxCell>
        <mxCell id="D4jHrqRHZV9Om87bHCHB-50" value="deploy" style="edgeStyle=orthogonalEdgeStyle;rounded=0;orthogonalLoop=1;jettySize=auto;html=1;entryX=0;entryY=0.5;entryDx=0;entryDy=0;fontSize=10;" edge="1" parent="1" source="D4jHrqRHZV9Om87bHCHB-5" target="D4jHrqRHZV9Om87bHCHB-28">
          <mxGeometry relative="1" as="geometry" />
        </mxCell>
      </root>
    </mxGraphModel>
  </diagram>
</mxfile>
